<svg version="1.1" id="Artwork" xmlns="http://www.w3.org/2000/svg" x="0" y="0" viewBox="0 0 320.5 97.5" xml:space="preserve">
  <style>
    .st0{fill:#f76900}.st1{fill:#000e54}
  </style>
  <path class="st0" d="M61.5 27.8l-1.3-6.2 1.7-.6c1 2.3 3.1 5.2 6.8 5.2 2.3 0 4.7-1.3 4.7-4.3 0-5.7-12-4.5-12-11.7 0-4.3 3.3-6.4 7-6.4 2.5 0 3.9 1.1 4.4 1.7l.4-1.1h1.4L76 9.9l-1.7.6c-1-2.2-3.1-4.5-6-4.5-2.6 0-3.8 1.5-3.8 3.4 0 5.2 12 3.8 12 11.7 0 5.3-4.5 7.2-8 7.2-2.1 0-3.7-.7-5.1-1.6l-.4 1.1h-1.5zM82.6 35.6c-1.1.5-2.1 0-2.3-.9l3.6-7-5.4-12c-.4-1-.6-1.2-2.1-1.6v-1.4h6.5v1.4l-1.7.4 4.1 9.1 4-9.2-1.7-.4v-1.4H93V14c-.9.2-1.6.5-2 1.5l-5.6 12.4-2.8 7.7zM103.3 16.3c-.1-.5-.7-1.1-1.4-1.1-1.1 0-2.2 1-3 1.9V26l1.8.4v1.4h-6v-1.4l1.4-.4V15.9l-1.8-.5v-1.2c1.7-.3 2.6-.9 3.4-2l1.2.2-.2 3.2c.8-1.4 2.2-3.2 4.3-3.2 1 0 2.1.6 2.1 2 0 1.1-.9 1.9-1.8 1.9M114.4 23.9v-2.6l-3.5.7c-.9.2-2.4.7-2.4 2.3 0 1.1.8 2.1 2.4 2.1 1.8 0 3-1.1 3.5-2.5m4.8 2.1l.4.7c-.1.2-1.1 1.6-2.7 1.6s-2.3-.9-2.3-1.8c-.8 1.2-2.4 2-4.3 2-3 0-4.3-2-4.3-3.6 0-2.5 1.6-3.9 4.3-4.4l4.3-.8v-3.2c0-1.3-.9-2.2-2.3-2.2s-2 .6-2.6 1.2c.5 2.2-1.5 3.3-3.3 2.3.1-3.2 3.2-5.3 6.2-5.3 3.5 0 4.8 2 4.8 4.7v8.3c0 .6.4 1 .9 1 .3-.2.7-.4.9-.5M133.2 15.2c0 1.1-1 1.7-2 1.7-.6-1.4-1.5-2.4-3.4-2.4-2.7 0-4.8 2.2-4.8 6 0 3.2 2 5.2 4.8 5.2 2.1 0 3.6-1 4.6-2.3l.7.5c-.5 2.3-2.7 4.3-6.4 4.3-3.5 0-6.6-2.5-6.6-7 0-5.6 4.5-9 8.7-9 2.1.1 4.4 1 4.4 3M136.3 14.7l-1.8-.4v-1.4h4.6v10.6c0 1.5.7 2.3 2.1 2.3 1.1 0 3-.5 4.8-2.1v-9.1l-1.8-.4v-1.4h4.6v12.3h1.8v1.4c-1.2.3-2.4.8-3.4 1.6l-1.2-.2.2-2.6c-1.8 1.7-3.8 3-6 3s-3.9-1.5-3.9-3.5V14.7zM153.7 27.8h-.9l-.7-4.3 1.1-.2c.9 1.8 2.6 3.4 4.8 3.4 2 0 2.7-1.3 2.7-2.3 0-3.3-8.1-2.7-8.1-7.7 0-2.3 2-4.3 4.6-4.3 1.5 0 2.7.5 3.3 1l.1-.5h1.1l.7 3.8-1.1.2c-.5-1-1.6-2.9-3.9-2.9-1.6 0-2.2 1-2.2 1.8 0 3 8 2.3 8 7.5 0 2.9-2.6 4.9-5.4 4.9-1.5 0-3.3-.9-3.9-1.6l-.2 1.2zM168.2 19.1l6.9-.9c0-2.8-1.4-4-2.9-4-2.7 0-3.9 2.2-4 4.9m-.1 1.8c.1 2.7 2 4.9 4.4 4.9 2.2 0 3.7-1 4.8-2.6l.7.5c-.6 2.7-2.9 4.7-6.4 4.7-3.5 0-6.5-2.5-6.5-7.1 0-6.2 3.7-8.9 7.2-8.9 3.2 0 5.9 1.9 5.9 6.5l-.6.9-9.5 1.1zM206.4 19.3c0 5.8-3.4 9.2-9.3 9.2s-9.3-3.4-9.3-9.2v-13l-1.8-.4V4.3h7v1.6l-1.8.4v12.5c0 4.5 1.9 7.2 6.6 7.2 3.8 0 6.3-2.6 6.3-7V6.3l-1.8-.4V4.3h6.1v1.6l-1.8.4v13zM209 27.8v-1.4l1.4-.4V15.9l-1.8-.5v-1.2c1.7-.3 2.6-.9 3.4-2l1.2.2-.2 3c1.8-1.7 3.8-3 6-3s3.9 1.5 3.9 3.5V26l1.8.4v1.4h-6v-1.4l1.4-.4v-8.8c0-1.5-.7-2.3-2.1-2.3-1.1 0-3 .5-4.8 2.1v9l1.8.4v1.4h-6zM230 6.2c1 0 1.8.8 1.8 1.8s-.8 1.8-1.8 1.8-1.8-.8-1.8-1.8c0-1.1.8-1.8 1.8-1.8m-3.2 21.6v-1.4l1.6-.4V15.9l-1.8-.5v-1.2c1.7-.3 2.6-.9 3.4-2l1.2.2v13.7l1.6.4v1.4h-6zM233.2 12.9h6.5v1.4l-1.7.4 4.1 9.1 4-9.2-1.7-.4v-1.4h5.4v1.4c-.9.2-1.6.5-2 1.5l-5.6 12.4h-1.3l-5.6-12.4c-.5-1-.6-1.2-2.1-1.6v-1.2zM252.7 19.1l6.9-.9c0-2.8-1.4-4-2.9-4-2.6 0-3.9 2.2-4 4.9m0 1.8c.1 2.7 2 4.9 4.4 4.9 2.2 0 3.7-1 4.8-2.6l.7.5c-.6 2.7-2.9 4.7-6.4 4.7-3.5 0-6.5-2.5-6.5-7.1 0-6.2 3.7-8.9 7.2-8.9 3.2 0 5.9 1.9 5.9 6.5l-.6.9-9.5 1.1zM273.2 16.3c-.1-.5-.7-1.1-1.4-1.1-1.1 0-2.2 1-3 1.9V26l1.8.4v1.4h-6v-1.4l1.4-.4V15.9l-1.8-.5v-1.2c1.7-.3 2.6-.9 3.4-2l1.2.2-.2 3.2c.8-1.4 2.2-3.2 4.3-3.2 1 0 2.1.6 2.1 2 .1 1.1-.8 1.9-1.8 1.9M277.4 27.8h-.9l-.7-4.3 1.1-.2c.9 1.8 2.6 3.4 4.8 3.4 2 0 2.7-1.3 2.7-2.3 0-3.3-8.1-2.7-8.1-7.7 0-2.3 2-4.3 4.6-4.3 1.5 0 2.7.5 3.3 1l.1-.5h1.1l.7 3.8-1.1.2c-.5-1-1.6-2.9-3.9-2.9-1.6 0-2.2 1-2.2 1.8 0 3 8 2.3 8 7.5 0 2.9-2.6 4.9-5.4 4.9-1.5 0-3.3-.9-3.9-1.6l-.2 1.2zM292 6.2c1 0 1.8.8 1.8 1.8s-.8 1.8-1.8 1.8-1.8-.8-1.8-1.8c0-1.1.8-1.8 1.8-1.8m-3.2 21.6v-1.4l1.6-.4V15.9l-1.8-.5v-1.2c1.7-.3 2.6-.9 3.4-2l1.2.2v13.7l1.6.4v1.4h-6zM297.8 25.2V14.7h-2.3v-1.4c2-.4 3.2-2.1 3.9-4.1l1.2.2v3.4h3.9v1.8h-3.9v9.9c0 1.1.5 1.7 1.4 1.7.7 0 1.3-.4 1.7-.9l.7.6c-.4 1.1-1.7 2.3-3.4 2.3-1.8.1-3.2-1-3.2-3"/>
  <path class="st0" d="M308.7 35.6c-1.1.5-2.1 0-2.3-.9l3.6-7-5.4-12c-.4-1-1.3-1.1-2.3-1.1h-3v-1.8h9.7v1.4l-1.7.4 4.1 9.1 4-9.2-1.7-.4v-1.4h5.4v1.4c-.9.2-1.6.5-2 1.5L311.5 28l-2.8 7.6z"/>
  <g>
    <path class="st1" d="M60.3 50.7c0-6.1 4.6-10.2 9.8-10.2 3.2 0 5.3 1.3 6.2 2.1l.3-.8h1l1.2 4.6-1.2.5c-.9-1.7-3.1-4.3-7.1-4.3-3.7 0-7.4 2.1-7.4 7.5 0 5.2 3.5 8.5 7.6 8.5 3.5 0 6.2-2.6 7.2-4.8l1.3.5-.8 3.9c-.3 0-.6 0-1 .2-1.2.4-3.2 2.2-7.1 2.2-5.8-.1-10-4-10-9.9zM93.4 53.8c0 4-3 6.7-6.4 6.7-3.4 0-6.1-2.5-6.1-6.4 0-4 3-6.7 6.4-6.7 3.4 0 6.1 2.5 6.1 6.4zm-2.4.5c0-3.4-1.8-5.4-3.9-5.4-2 0-3.7 1.4-3.7 4.6 0 3.4 1.8 5.4 3.9 5.4 2 0 3.7-1.3 3.7-4.6zM94.5 60v-1.1l1.3-.3v-15l-1.5-.4v-1c1.4-.2 2.1-.7 2.8-1.7l1 .2v17.9l1.3.3V60h-4.9zM100.8 60v-1.1l1.3-.3v-15l-1.5-.4v-1c1.4-.2 2.1-.7 2.8-1.7l1 .2v17.9l1.3.3V60h-4.9zM109.2 54.4c.1 2.2 1.6 4 3.6 4 1.8 0 3-.8 3.9-2.1l.6.4c-.5 2.2-2.4 3.8-5.2 3.8-2.9 0-5.3-2.1-5.3-5.8 0-5.1 3-7.3 5.9-7.3 2.6 0 4.8 1.6 4.8 5.3l-.5.7-7.8 1zm.1-1.5l5.7-.8c0-2.3-1.2-3.2-2.4-3.2-2.2 0-3.2 1.8-3.3 4zM120.9 60.7c-.8-.3-1.3-1.1-1.3-1.7 0-1.1 1-1.8 2.1-2.6-1.6-.7-2.8-2.1-2.8-4.2 0-3 2.5-4.7 5-4.7 1.3 0 2.6.4 3.5 1.3l2.1-1.3c.8.3 1.1 1.2.7 2.1l-1.8.4c.3.6.5 1.3.5 2.1 0 3-2.5 4.7-5 4.7-.3 0-.7 0-1.1-.1-.7.5-1 .9-1 1.3 0 .3.2.6 1 .7l3.9.6c2.3.3 3.6 1.3 3.6 3 0 2.4-2.3 4.6-6.7 4.6-2.5 0-5-.8-5-3.1-.1-1.5 1.1-2.3 2.3-3.1zm1.3.2c-1.1.8-1.5 1.5-1.5 2.2 0 1.4 1.1 2.1 3.2 2.1 2.7 0 3.9-1.2 3.9-2.2 0-.8-.4-1.4-1.9-1.6l-3.7-.5zm2-5.6c1.3 0 2.4-.9 2.4-3 0-2.5-1.3-3.4-2.8-3.4-1.3 0-2.4.9-2.4 3-.1 2.4 1.3 3.4 2.8 3.4zM133.3 54.4c.1 2.2 1.6 4 3.6 4 1.8 0 3-.8 3.9-2.1l.6.4c-.5 2.2-2.4 3.8-5.2 3.8-2.9 0-5.3-2.1-5.3-5.8 0-5.1 3-7.3 5.9-7.3 2.6 0 4.8 1.6 4.8 5.3l-.5.7-7.8 1zm.1-1.5l5.7-.8c0-2.3-1.2-3.2-2.4-3.2-2.2 0-3.2 1.8-3.3 4zM160.3 53.8c0 4-3 6.7-6.4 6.7-3.4 0-6.1-2.5-6.1-6.4 0-4 3-6.7 6.4-6.7 3.4 0 6.1 2.5 6.1 6.4zm-2.4.5c0-3.4-1.8-5.4-3.9-5.4-2 0-3.7 1.4-3.7 4.6 0 3.4 1.8 5.4 3.9 5.4 2 0 3.7-1.3 3.7-4.6zM170.6 42.2c0 1-.8 1.5-1.6 1.5-.1-.7-.6-1.5-1.6-1.5-.9 0-2.1.7-2.1 3V48h3.2v1.5h-3.2v9.3l1.9.3v.9h-5.5v-1.1l1.3-.3v-9.3h-2v-1.1l1.9-.3v-1.5c0-3.7 2.3-5.9 5.1-5.9 1.2-.1 2.6.5 2.6 1.7zM188.2 60h-13.7v-1.3l1.5-.3v-16l-1.5-.3v-1.3h14.2l.4 3.8-1.3.2c-.4-1.9-1.4-2.4-3.3-2.4h-5.8v6.7h6.5l.3-1.5h1.5v4.9h-1.5l-.3-1.8h-6.5v7.6h4.5c2.3 0 3.5-.1 5.3-2.7l1.1.5-1.4 3.9zM191 60v-1.1l1.2-.3v-8.3l-1.5-.4v-1c1.4-.2 2.1-.7 2.8-1.7l1 .2-.1 2.4c1.5-1.4 3.1-2.4 4.9-2.4 1.8 0 3.2 1.2 3.2 2.9v8.3l1.5.3V60h-4.9v-1.1l1.2-.3v-7.2c0-1.2-.6-1.9-1.7-1.9-.9 0-2.4.4-3.9 1.7v7.4l1.5.3V60H191zM206.9 60.7c-.8-.3-1.3-1.1-1.3-1.7 0-1.1 1-1.8 2.1-2.6-1.6-.7-2.8-2.1-2.8-4.2 0-3 2.5-4.7 5-4.7 1.3 0 2.6.4 3.5 1.3l2.1-1.3c.8.3 1.1 1.2.7 2.1l-1.8.4c.3.6.5 1.3.5 2.1 0 3-2.5 4.7-5 4.7-.3 0-.7 0-1.1-.1-.7.5-1 .9-1 1.3 0 .3.2.6 1 .7l3.9.6c2.3.3 3.6 1.3 3.6 3 0 2.4-2.3 4.6-6.7 4.6-2.5 0-5-.8-5-3.1 0-1.5 1.1-2.3 2.3-3.1zm1.3.2c-1.1.8-1.5 1.5-1.5 2.2 0 1.4 1.1 2.1 3.2 2.1 2.7 0 3.9-1.2 3.9-2.2 0-.8-.4-1.4-1.9-1.6l-3.7-.5zm2-5.6c1.3 0 2.4-.9 2.4-3 0-2.5-1.3-3.4-2.8-3.4-1.3 0-2.4.9-2.4 3-.1 2.4 1.3 3.4 2.8 3.4zM217.7 60v-1.1l1.3-.3v-8.3l-1.5-.4v-1c1.4-.2 2.1-.7 2.8-1.7l1 .2v11.2l1.3.3V60h-4.9zm2.6-17.6c.8 0 1.5.6 1.5 1.5s-.6 1.5-1.5 1.5c-.8 0-1.5-.6-1.5-1.5s.7-1.5 1.5-1.5zM224.1 60v-1.1l1.2-.3v-8.3l-1.5-.4v-1c1.4-.2 2.1-.7 2.8-1.7l1 .2-.1 2.4c1.5-1.4 3.1-2.4 4.9-2.4 1.8 0 3.2 1.2 3.2 2.9v8.3l1.5.3V60h-4.9v-1.1l1.2-.3v-7.2c0-1.2-.6-1.9-1.7-1.9-.9 0-2.4.4-3.9 1.7v7.4l1.5.3V60h-5.2zM240.4 54.4c.1 2.2 1.6 4 3.6 4 1.8 0 3-.8 3.9-2.1l.6.4c-.5 2.2-2.4 3.8-5.2 3.8-2.9 0-5.3-2.1-5.3-5.8 0-5.1 3-7.3 5.9-7.3 2.6 0 4.8 1.6 4.8 5.3l-.5.7-7.8 1zm0-1.5l5.7-.8c0-2.3-1.2-3.2-2.4-3.2-2.1 0-3.2 1.8-3.3 4zM252.5 54.4c.1 2.2 1.6 4 3.6 4 1.8 0 3-.8 3.9-2.1l.6.4c-.5 2.2-2.4 3.8-5.2 3.8-2.9 0-5.3-2.1-5.3-5.8 0-5.1 3-7.3 5.9-7.3 2.6 0 4.8 1.6 4.8 5.3l-.5.7-7.8 1zm0-1.5l5.7-.8c0-2.3-1.2-3.2-2.4-3.2-2.2 0-3.2 1.8-3.3 4zM269.2 50.6c-.1-.4-.6-.9-1.2-.9-.9 0-1.8.8-2.4 1.5v7.3l1.5.3V60h-4.9v-1.1l1.2-.3v-8.3l-1.5-.4v-1c1.4-.2 2.1-.7 2.8-1.7l1 .2-.1 2.6c.7-1.2 1.8-2.6 3.5-2.6.8 0 1.7.5 1.7 1.6-.1 1-.8 1.6-1.6 1.6zM271.8 60v-1.1l1.3-.3v-8.3l-1.5-.4v-1c1.4-.2 2.1-.7 2.8-1.7l1 .2v11.2l1.3.3V60h-4.9zm2.6-17.6c.8 0 1.5.6 1.5 1.5s-.6 1.5-1.5 1.5c-.8 0-1.5-.6-1.5-1.5s.7-1.5 1.5-1.5zM278.2 60v-1.1l1.2-.3v-8.3l-1.5-.4v-1c1.4-.2 2.1-.7 2.8-1.7l1 .2-.1 2.4c1.5-1.4 3.1-2.4 4.9-2.4 1.8 0 3.2 1.2 3.2 2.9v8.3l1.5.3V60h-4.9v-1.1l1.2-.3v-7.2c0-1.2-.6-1.9-1.7-1.9-.9 0-2.4.4-3.9 1.7v7.4l1.5.3V60h-5.2zM294.2 60.7c-.8-.3-1.3-1.1-1.3-1.7 0-1.1 1-1.8 2.1-2.6-1.6-.7-2.8-2.1-2.8-4.2 0-3 2.5-4.7 5-4.7 1.3 0 2.6.4 3.5 1.3l2.1-1.3c.8.3 1.1 1.2.7 2.1l-1.8.4c.3.6.5 1.3.5 2.1 0 3-2.5 4.7-5 4.7-.3 0-.7 0-1.1-.1-.7.5-1 .9-1 1.3 0 .3.2.6 1 .7l3.9.6c2.3.3 3.6 1.3 3.6 3 0 2.4-2.3 4.6-6.7 4.6-2.5 0-5-.8-5-3.1-.1-1.5 1-2.3 2.3-3.1zm1.2.2c-1.1.8-1.5 1.5-1.5 2.2 0 1.4 1.1 2.1 3.2 2.1 2.7 0 3.9-1.2 3.9-2.2 0-.8-.4-1.4-1.9-1.6l-3.7-.5zm2-5.6c1.3 0 2.4-.9 2.4-3 0-2.5-1.3-3.4-2.8-3.4-1.3 0-2.4.9-2.4 3 0 2.4 1.3 3.4 2.8 3.4zM75.3 89c-.4-1-.8-1.8-1.3-2.7-2.1 2.2-4.5 3.1-6.9 3.1-4.3 0-7.1-2.5-7.1-5.6 0-3.1 2.1-5 4.3-6-1.2-.9-2.3-2.1-2.3-3.9 0-2.5 2.2-4.6 5.1-4.6 2.7 0 4.8 1.8 4.8 4.3 0 1.6-1.4 3.3-3.2 4.1.4.2 1 .5 1.5.7 1.9 1.1 3.3 2.5 4.6 4.2 1-1.7 1.9-4 2.6-7.1l-1.5-.3V74h4.6v1.2l-1.5.4c-.7 3.7-1.9 6.5-3.2 8.6.1.2.3.4.3.6 1.5 2.6 2.4 3.1 3.3 3.1V89h-4.1zm-2.1-4.2c-1.2-2-2.5-3.6-4.2-4.5-1-.5-2.2-1-3.5-1.7-1.7.8-2.7 2.4-2.7 4.5 0 2.8 2.5 4.2 4.9 4.2 1.6 0 3.6-.4 5.5-2.5zm-5.7-7.6c1.5-.5 2.4-2.1 2.4-3.2 0-1.8-1.2-3.1-2.9-3.1-1.5 0-2.8 1.2-2.8 2.6 0 1.6.8 2.4 3.3 3.7zM87.1 79.7c0-6.1 4.6-10.2 9.8-10.2 3.2 0 5.3 1.3 6.2 2.1l.3-.8h1l1.2 4.6-1.2.5c-.9-1.7-3.1-4.3-7.1-4.3-3.7 0-7.4 2.1-7.4 7.5 0 5.2 3.5 8.5 7.6 8.5 3.5 0 6.2-2.6 7.2-4.8l1.3.5-.8 3.9c-.3 0-.6 0-1 .2-1.2.4-3.2 2.2-7.1 2.2-5.9-.1-10-4-10-9.9zM120.1 82.8c0 4-3 6.7-6.4 6.7-3.4 0-6.1-2.5-6.1-6.4 0-4 3-6.7 6.4-6.7 3.4 0 6.1 2.5 6.1 6.4zm-2.4.5c0-3.4-1.8-5.4-3.9-5.4-2 0-3.7 1.4-3.7 4.6 0 3.4 1.8 5.4 3.9 5.4 2.1 0 3.7-1.3 3.7-4.6zM121.5 89v-1.1l1.2-.3v-8.3l-1.5-.4v-1c1.4-.2 2.1-.7 2.8-1.7l1 .2-.1 2.1c1.3-1.2 2.7-2.1 4.3-2.1 1.5 0 2.8.9 3.1 2.1 1.3-1.2 2.6-2.1 4.3-2.1 1.8 0 3.2 1.2 3.2 2.9v8.3l1.5.3V89h-4.9v-1.1l1.2-.3v-7.2c0-1.2-.6-1.9-1.7-1.9-.8 0-2.1.3-3.3 1.4v7.7l1.5.3V89h-4.9v-1.1l1.2-.3v-7.2c0-1.2-.6-1.9-1.7-1.9-.8 0-2.1.3-3.3 1.4v7.7l1.5.3V89h-5.4zM142.2 95.4v-1.1l1.2-.3V79.3l-1.5-.4v-1c1.4-.2 2.1-.7 2.8-1.7l1 .2-.1 2.1c1-1.2 2.6-2.1 4.4-2.1 2.9 0 5.3 2.1 5.3 5.8 0 5.1-3.5 7.3-6.4 7.3-1.5 0-2.4-.4-3.1-.9V94l1.5.3v1.1h-5.1zm3.5-15.4v6.9c.3.3 1.3 1 2.8 1 2.1 0 4.3-1.4 4.3-5 0-2.6-1.5-4.3-3.7-4.3-1.4-.1-2.6.5-3.4 1.4zM157.5 78.3L156 78v-1.1h3.8v8.6c0 1.2.6 1.9 1.7 1.9.9 0 2.4-.4 3.9-1.7v-7.4l-1.5-.3v-1.1h3.8V87h1.5v1c-1 .2-2 .6-2.8 1.3l-1-.2.1-2.1c-1.5 1.4-3.1 2.4-4.9 2.4-1.8 0-3.2-1.2-3.2-2.9v-8.2zM171.4 86.9v-8.6h-1.9v-1.1c1.6-.3 2.6-1.7 3.2-3.3l1 .2v2.8h3.2v1.5h-3.2v8.1c0 .9.4 1.4 1.2 1.4.6 0 1.1-.3 1.4-.7l.6.5c-.3.9-1.4 1.9-2.8 1.9-1.6-.1-2.7-1-2.7-2.7zM180.1 83.4c.1 2.2 1.6 4 3.6 4 1.8 0 3-.8 3.9-2.1l.6.4c-.5 2.2-2.4 3.8-5.2 3.8-2.9 0-5.3-2.1-5.3-5.8 0-5.1 3-7.3 5.9-7.3 2.6 0 4.8 1.6 4.8 5.3l-.5.7-7.8 1zm0-1.5l5.7-.8c0-2.3-1.2-3.2-2.4-3.2-2.1 0-3.2 1.8-3.3 4zM196.8 79.6c-.1-.4-.6-.9-1.2-.9-.9 0-1.8.8-2.4 1.5v7.3l1.5.3V89h-4.9v-1.1l1.2-.3v-8.3l-1.5-.4v-1c1.4-.2 2.1-.7 2.8-1.7l1 .2-.1 2.6c.7-1.2 1.8-2.6 3.5-2.6.8 0 1.7.5 1.7 1.6 0 1-.8 1.6-1.6 1.6zM204.7 89l-1.1-5 1.4-.5c.8 1.9 2.5 4.2 5.5 4.2 1.9 0 3.8-1 3.8-3.5 0-4.6-9.8-3.7-9.8-9.5 0-3.5 2.7-5.2 5.7-5.2 2.1 0 3.2.9 3.6 1.4l.3-.9h1.2l1.2 4.6-1.4.5c-.8-1.8-2.5-3.7-4.9-3.7-2.1 0-3.1 1.2-3.1 2.8 0 4.2 9.8 3.1 9.8 9.5 0 4.3-3.7 5.9-6.6 5.9-1.7 0-3-.6-4.2-1.3l-.3.9h-1.1zM229.3 78.7c0 .9-.8 1.4-1.7 1.4-.5-1.2-1.2-1.9-2.8-1.9-2.2 0-3.9 1.8-3.9 4.9 0 2.6 1.7 4.3 3.9 4.3 1.7 0 2.9-.8 3.7-1.9l.6.4c-.4 1.9-2.2 3.5-5.3 3.5-2.9 0-5.4-2-5.4-5.7 0-4.6 3.7-7.3 7.1-7.3 1.9 0 3.8.7 3.8 2.3zM230.6 89v-1.1l1.3-.3v-8.3l-1.5-.4v-1c1.4-.2 2.1-.7 2.8-1.7l1 .2v11.2l1.3.3V89h-4.9zm2.6-17.6c.8 0 1.5.6 1.5 1.5s-.6 1.5-1.5 1.5c-.8 0-1.5-.6-1.5-1.5s.7-1.5 1.5-1.5zM239.1 83.4c.1 2.2 1.6 4 3.6 4 1.8 0 3-.8 3.9-2.1l.6.4c-.5 2.2-2.4 3.8-5.2 3.8-2.9 0-5.3-2.1-5.3-5.8 0-5.1 3-7.3 5.9-7.3 2.6 0 4.8 1.6 4.8 5.3l-.5.7-7.8 1zm0-1.5l5.7-.8c0-2.3-1.2-3.2-2.4-3.2-2.2 0-3.2 1.8-3.3 4zM248.7 89v-1.1l1.2-.3v-8.3l-1.5-.4v-1c1.4-.2 2.1-.7 2.8-1.7l1 .2-.1 2.4c1.5-1.4 3.1-2.4 4.9-2.4 1.8 0 3.2 1.2 3.2 2.9v8.3l1.5.3V89h-4.9v-1.1l1.2-.3v-7.2c0-1.2-.6-1.9-1.7-1.9-.9 0-2.4.4-3.9 1.7v7.4l1.5.3V89h-5.2zM273.3 78.7c0 .9-.8 1.4-1.7 1.4-.5-1.2-1.2-1.9-2.8-1.9-2.2 0-3.9 1.8-3.9 4.9 0 2.6 1.7 4.3 3.9 4.3 1.7 0 2.9-.8 3.7-1.9l.6.4c-.4 1.9-2.2 3.5-5.3 3.5-2.9 0-5.4-2-5.4-5.7 0-4.6 3.7-7.3 7.1-7.3 1.9 0 3.8.7 3.8 2.3zM276.8 83.4c.1 2.2 1.6 4 3.6 4 1.8 0 3-.8 3.9-2.1l.6.4c-.5 2.2-2.4 3.8-5.2 3.8-2.9 0-5.3-2.1-5.3-5.8 0-5.1 3-7.3 5.9-7.3 2.6 0 4.8 1.6 4.8 5.3l-.5.7-7.8 1zm.1-1.5l5.7-.8c0-2.3-1.2-3.2-2.4-3.2-2.2 0-3.2 1.8-3.3 4z"/>
  </g>
  <g>
    <path id="XMLID_2_" class="st0" d="M30.3 20.9h14.9V10c-.2-.2-8.3-8-8.6-8.2h-27C9.5 2 1.7 9.7 1.4 10v20c.2.2 7.7 7.8 8 8.1h20.9v11.6H16.5V43H1.4v10.9c.2.2 8.1 8 8.3 8.2h27c.2-.2 8.3-8 8.6-8.2v-20c-.2-.2-7.7-7.8-8-8.1H16.5V14.2h13.8v6.7z"/>
  </g>
</svg>
